<svg width="294" height="183" viewBox="0 0 294 183" fill="none" xmlns="http://www.w3.org/2000/svg">
<path d="M21.758 34.6254L53.6921 122.595C111.444 123.518 142.399 148.552 147.002 153.243C147.002 153.243 118.535 57.2604 21.758 34.6254Z" fill="#00609E"/>
<path d="M9.62381 48.1702L42.6622 136.14C107.486 136.14 141.615 163.336 147.002 168.009V159.749C137.026 151.675 102.864 130.237 45.3118 130.237L14.7652 48.263C13.0715 48.2026 11.3546 48.1702 9.62381 48.1702Z" fill="#F8B31A"/>
<mask id="mask0_44_69" style="mask-type:luminance" maskUnits="userSpaceOnUse" x="0" y="57" width="148" height="126">
<path d="M0 57.1305H147.206V182.565H0V57.1305Z" fill="white"/>
</mask>
<g mask="url(#mask0_44_69)">
<path d="M0 57.2604L34.1335 147.865C105.435 147.865 142.195 178.296 147.002 182.565V174.347C136.585 165.791 99.7695 142.209 37.0011 142.209L5.25273 57.3532C3.52193 57.2929 1.76793 57.2604 0 57.2604Z" fill="#1F396D"/>
</g>
<path d="M272.247 34.6254L240.313 122.595C182.556 123.518 151.605 148.552 147.002 153.243C147.002 153.243 175.465 57.2604 272.247 34.6254Z" fill="#00609E"/>
<path d="M284.529 0.779541L276.966 21.6188C225.863 32.8853 192.913 65.8308 174.245 91.5238C189.887 61.8774 223.079 16.4589 284.529 0.779541Z" fill="#F8B31A"/>
<mask id="mask1_44_69" style="mask-type:luminance" maskUnits="userSpaceOnUse" x="6" y="0" width="115" height="93">
<path d="M6.11578 0H120.154V92.6838H6.11578V0Z" fill="white"/>
</mask>
<g mask="url(#mask1_44_69)">
<path d="M6.181 -0.0231934L13.791 20.9367C66.7452 31.4979 100.698 65.288 119.755 91.5238C103.839 61.3531 69.7428 14.8487 6.181 -0.0231934Z" fill="#F8B31A"/>
</g>
<path d="M284.381 48.1702L251.342 136.14C186.518 136.14 152.39 163.336 147.002 168.009V159.749C156.979 151.675 191.135 130.237 248.688 130.237L279.235 48.263C280.933 48.2026 282.645 48.1702 284.381 48.1702Z" fill="#F8B31A"/>
<mask id="mask2_44_69" style="mask-type:luminance" maskUnits="userSpaceOnUse" x="146" y="57" width="148" height="126">
<path d="M146.965 57.1305H294V182.565H146.965V57.1305Z" fill="white"/>
</mask>
<g mask="url(#mask2_44_69)">
<path d="M294 57.2604L259.871 147.865C188.569 147.865 151.81 178.296 147.002 182.565V174.347C157.42 165.791 194.231 142.209 257.003 142.209L288.747 57.3532C290.483 57.2929 292.232 57.2604 294 57.2604Z" fill="#1F396D"/>
</g>
<path d="M147.002 71.2553C147.002 71.2553 117.421 20.8764 77.4964 9.44287C77.4964 9.44287 135.796 57.859 147.002 147.573C158.208 57.859 216.504 9.44287 216.504 9.44287C176.579 20.8764 147.002 71.2553 147.002 71.2553Z" fill="#00609E"/>
<path d="M165.656 22.4587C165.656 11.0948 157.304 1.87927 147.002 1.87927C136.701 1.87927 128.349 11.0948 128.349 22.4587C128.349 33.8272 136.701 43.0381 147.002 43.0381C157.304 43.0381 165.656 33.8272 165.656 22.4587Z" fill="#00609E"/>
</svg>
