<svg width="419" height="419" viewBox="0 0 419 419" fill="none" xmlns="http://www.w3.org/2000/svg">
<rect width="419" height="419" rx="64" fill="white"/>
<path d="M84.758 152.625L116.692 240.595C174.444 241.518 205.399 266.552 210.002 271.243C210.002 271.243 181.535 175.26 84.758 152.625Z" fill="#00609E"/>
<path d="M72.6238 166.17L105.662 254.14C170.486 254.14 204.615 281.336 210.002 286.009V277.749C200.026 269.675 165.864 248.237 108.312 248.237L77.7652 166.263C76.0715 166.203 74.3546 166.17 72.6238 166.17Z" fill="#F8B31A"/>
<mask id="mask0_44_72" style="mask-type:luminance" maskUnits="userSpaceOnUse" x="63" y="175" width="148" height="126">
<path d="M63 175.13H210.206V300.565H63V175.13Z" fill="white"/>
</mask>
<g mask="url(#mask0_44_72)">
<path d="M63 175.26L97.1335 265.865C168.435 265.865 205.195 296.296 210.002 300.565V292.347C199.585 283.791 162.769 260.209 100.001 260.209L68.2527 175.353C66.5219 175.293 64.7679 175.26 63 175.26Z" fill="#1F396D"/>
</g>
<path d="M335.247 152.625L303.313 240.595C245.556 241.518 214.605 266.552 210.002 271.243C210.002 271.243 238.465 175.26 335.247 152.625Z" fill="#00609E"/>
<path d="M347.529 118.78L339.966 139.619C288.863 150.885 255.913 183.831 237.245 209.524C252.887 179.877 286.079 134.459 347.529 118.78Z" fill="#F8B31A"/>
<mask id="mask1_44_72" style="mask-type:luminance" maskUnits="userSpaceOnUse" x="69" y="118" width="115" height="93">
<path d="M69.1158 118H183.154V210.684H69.1158V118Z" fill="white"/>
</mask>
<g mask="url(#mask1_44_72)">
<path d="M69.181 117.977L76.791 138.937C129.745 149.498 163.698 183.288 182.755 209.524C166.839 179.353 132.743 132.849 69.181 117.977Z" fill="#F8B31A"/>
</g>
<path d="M347.381 166.17L314.342 254.14C249.518 254.14 215.39 281.336 210.002 286.009V277.749C219.979 269.675 254.135 248.237 311.688 248.237L342.235 166.263C343.933 166.203 345.645 166.17 347.381 166.17Z" fill="#F8B31A"/>
<mask id="mask2_44_72" style="mask-type:luminance" maskUnits="userSpaceOnUse" x="209" y="175" width="148" height="126">
<path d="M209.965 175.13H357V300.565H209.965V175.13Z" fill="white"/>
</mask>
<g mask="url(#mask2_44_72)">
<path d="M357 175.26L322.871 265.865C251.569 265.865 214.81 296.296 210.002 300.565V292.347C220.42 283.791 257.231 260.209 320.003 260.209L351.747 175.353C353.483 175.293 355.232 175.26 357 175.26Z" fill="#1F396D"/>
</g>
<path d="M210.002 189.255C210.002 189.255 180.421 138.876 140.496 127.443C140.496 127.443 198.796 175.859 210.002 265.573C221.208 175.859 279.504 127.443 279.504 127.443C239.579 138.876 210.002 189.255 210.002 189.255Z" fill="#00609E"/>
<path d="M228.656 140.459C228.656 129.095 220.304 119.879 210.002 119.879C199.701 119.879 191.349 129.095 191.349 140.459C191.349 151.827 199.701 161.038 210.002 161.038C220.304 161.038 228.656 151.827 228.656 140.459Z" fill="#00609E"/>
</svg>
