<svg width="860" height="183" viewBox="0 0 860 183" fill="none" xmlns="http://www.w3.org/2000/svg">
<path d="M21.758 34.6254L53.692 122.595C111.444 123.518 142.399 148.552 147.002 153.243C147.002 153.243 118.535 57.2604 21.758 34.6254Z" fill="#00609E"/>
<path d="M9.62381 48.1702L42.6622 136.14C107.486 136.14 141.615 163.336 147.002 168.009V159.749C137.026 151.675 102.864 130.237 45.3118 130.237L14.7652 48.263C13.0715 48.2026 11.3546 48.1702 9.62381 48.1702Z" fill="#F8B31A"/>
<mask id="mask0_48_76" style="mask-type:luminance" maskUnits="userSpaceOnUse" x="0" y="57" width="148" height="126">
<path d="M0 57.1305H147.206V182.565H0V57.1305Z" fill="white"/>
</mask>
<g mask="url(#mask0_48_76)">
<path d="M0 57.2604L34.1335 147.865C105.435 147.865 142.195 178.296 147.002 182.565V174.347C136.585 165.791 99.7695 142.209 37.0011 142.209L5.25273 57.3532C3.52193 57.2929 1.76793 57.2604 0 57.2604Z" fill="#1F396D"/>
</g>
<path d="M272.247 34.6254L240.313 122.595C182.556 123.518 151.605 148.552 147.002 153.243C147.002 153.243 175.465 57.2604 272.247 34.6254Z" fill="#00609E"/>
<path d="M284.529 0.779541L276.966 21.6188C225.863 32.8853 192.913 65.8308 174.245 91.5238C189.887 61.8774 223.079 16.4589 284.529 0.779541Z" fill="#F8B31A"/>
<mask id="mask1_48_76" style="mask-type:luminance" maskUnits="userSpaceOnUse" x="6" y="0" width="115" height="93">
<path d="M6.1158 0H120.154V92.6838H6.1158V0Z" fill="white"/>
</mask>
<g mask="url(#mask1_48_76)">
<path d="M6.181 -0.0231934L13.791 20.9367C66.7452 31.4979 100.698 65.288 119.755 91.5238C103.839 61.3531 69.7428 14.8487 6.181 -0.0231934Z" fill="#F8B31A"/>
</g>
<path d="M284.381 48.1702L251.342 136.14C186.518 136.14 152.39 163.336 147.002 168.009V159.749C156.979 151.675 191.135 130.237 248.688 130.237L279.235 48.263C280.933 48.2026 282.645 48.1702 284.381 48.1702Z" fill="#F8B31A"/>
<mask id="mask2_48_76" style="mask-type:luminance" maskUnits="userSpaceOnUse" x="146" y="57" width="148" height="126">
<path d="M146.965 57.1305H294V182.565H146.965V57.1305Z" fill="white"/>
</mask>
<g mask="url(#mask2_48_76)">
<path d="M294 57.2604L259.871 147.865C188.569 147.865 151.81 178.296 147.002 182.565V174.347C157.42 165.791 194.231 142.209 257.003 142.209L288.747 57.3532C290.483 57.2929 292.232 57.2604 294 57.2604Z" fill="#1F396D"/>
</g>
<path d="M147.002 71.2553C147.002 71.2553 117.421 20.8764 77.4964 9.44287C77.4964 9.44287 135.796 57.859 147.002 147.573C158.208 57.859 216.504 9.44287 216.504 9.44287C176.579 20.8764 147.002 71.2553 147.002 71.2553Z" fill="#00609E"/>
<path d="M165.656 22.4587C165.656 11.0948 157.304 1.87927 147.002 1.87927C136.701 1.87927 128.349 11.0948 128.349 22.4587C128.349 33.8272 136.701 43.0381 147.002 43.0381C157.304 43.0381 165.656 33.8272 165.656 22.4587Z" fill="#00609E"/>
<path d="M371.625 37.6225L413.481 129.014H390.441L363.817 62.3265L371.625 37.6225ZM344.105 120.438C343.422 122.145 343.294 123.596 343.721 124.79C344.147 125.985 344.873 126.924 345.897 127.606C346.921 128.204 347.945 128.502 348.969 128.502H350.121V129.782H322.728V128.502C322.728 128.502 322.942 128.502 323.368 128.502C323.71 128.502 323.88 128.502 323.88 128.502C325.843 128.502 327.849 127.905 329.897 126.71C332.03 125.43 333.779 123.34 335.145 120.438H344.105ZM371.625 37.6225L372.137 53.2385L340.393 129.398H331.049L364.201 54.3905C364.457 53.8785 364.883 52.9398 365.481 51.5745C366.163 50.1238 366.846 48.5025 367.529 46.7105C368.297 44.9185 368.979 43.2118 369.577 41.5905C370.174 39.8838 370.473 38.5611 370.473 37.6225H371.625ZM385.065 99.3185V104.694H347.433V99.3185H385.065ZM386.985 120.438H409.385C410.835 123.34 412.585 125.43 414.633 126.71C416.681 127.905 418.686 128.502 420.649 128.502C420.649 128.502 420.819 128.502 421.161 128.502C421.502 128.502 421.673 128.502 421.673 128.502V129.782H380.969V128.502H382.121C383.827 128.502 385.321 127.82 386.601 126.454C387.881 125.004 388.009 122.998 386.985 120.438ZM470.927 74.6145L504.463 120.566C506.425 123.126 508.431 125.089 510.479 126.454C512.527 127.734 514.873 128.417 517.519 128.502V129.782H507.023C506.084 129.782 504.505 129.74 502.287 129.654C500.153 129.569 497.721 129.228 494.991 128.63C492.26 128.033 489.487 127.009 486.671 125.558C483.94 124.022 481.551 121.889 479.503 119.158C479.076 118.561 478.223 117.409 476.943 115.702C475.663 113.996 474.169 111.948 472.463 109.558C470.756 107.169 468.964 104.737 467.087 102.262C465.295 99.7025 463.588 97.3131 461.967 95.0945C460.345 92.8758 459.023 91.0838 457.999 89.7185C457.06 88.2678 456.591 87.5425 456.591 87.5425L470.927 74.6145ZM503.055 41.0785L464.527 86.7745L456.591 87.5425L491.791 41.0785H503.055ZM512.015 40.1825V41.3345H511.503C508.687 41.3345 506.041 41.9318 503.567 43.1265C501.177 44.2358 499.129 45.7291 497.423 47.6065L487.055 47.3505C488.079 45.8998 488.249 44.5345 487.567 43.2545C486.884 41.9745 485.689 41.3345 483.983 41.3345H482.702V40.1825H511.503H512.015ZM452.495 40.1825V129.782H433.295V40.1825H452.495ZM433.679 120.438V129.782H423.439V128.502C423.524 128.502 423.78 128.502 424.207 128.502C424.719 128.502 425.017 128.502 425.103 128.502C427.321 128.502 429.199 127.734 430.735 126.198C432.356 124.577 433.209 122.657 433.295 120.438H433.679ZM433.679 49.5265H433.295C433.209 47.3078 432.356 45.4305 430.735 43.8945C429.199 42.2731 427.321 41.4625 425.103 41.4625C425.017 41.4625 424.719 41.4625 424.207 41.4625C423.78 41.4625 423.524 41.4625 423.439 41.4625V40.1825H433.679V49.5265ZM452.111 120.438H452.495C452.58 122.657 453.391 124.577 454.927 126.198C456.548 127.734 458.468 128.502 460.687 128.502C460.772 128.502 461.028 128.502 461.455 128.502C461.967 128.502 462.265 128.502 462.351 128.502V129.782H452.111V120.438ZM452.111 49.5265V40.1825H462.351V41.4625C462.265 41.4625 461.967 41.4625 461.455 41.4625C461.028 41.4625 460.772 41.4625 460.687 41.4625C458.468 41.4625 456.548 42.2731 454.927 43.8945C453.391 45.4305 452.58 47.3078 452.495 49.5265H452.111ZM548.09 40.1825H564.602C568.442 40.1825 572.196 40.6091 575.866 41.4625C579.535 42.3158 582.778 43.6811 585.594 45.5585C588.495 47.4358 590.799 49.9105 592.506 52.9825C594.212 56.0545 595.066 59.8518 595.066 64.3745C595.066 67.9585 594.298 71.5425 592.762 75.1265C591.311 78.6251 589.05 81.6545 585.978 84.2145C582.906 86.6891 578.938 88.1825 574.074 88.6945C576.804 89.5478 579.279 91.0838 581.498 93.3025C583.802 95.5211 585.679 97.7398 587.13 99.9585C587.215 100.129 587.684 100.897 588.538 102.262C589.476 103.628 590.586 105.334 591.866 107.382C593.231 109.345 594.639 111.35 596.09 113.398C597.54 115.446 598.863 117.238 600.058 118.774C601.935 121.078 603.642 122.956 605.178 124.406C606.714 125.772 608.335 126.796 610.042 127.478C611.748 128.076 613.711 128.417 615.93 128.502V129.782H603.386C598.778 129.782 594.596 129.398 590.842 128.63C587.087 127.777 583.759 126.369 580.858 124.406C577.956 122.444 575.439 119.798 573.306 116.47C572.623 115.446 571.855 114.166 571.002 112.63C570.234 111.009 569.423 109.302 568.57 107.51C567.716 105.718 566.863 104.012 566.01 102.39C565.242 100.684 564.559 99.1478 563.962 97.7825C563.364 96.4171 562.938 95.3505 562.682 94.5825C561.572 91.8518 560.25 89.8038 558.714 88.4385C557.263 87.0731 555.684 86.2625 553.978 86.0065V84.7265C554.234 84.7265 554.746 84.7265 555.514 84.7265C556.282 84.7265 557.092 84.7265 557.946 84.7265C560.25 84.7265 562.468 84.2571 564.602 83.3185C566.82 82.3798 568.783 80.8438 570.49 78.7105C572.196 76.5771 573.391 73.6331 574.074 69.8785C574.244 69.1105 574.372 68.2145 574.458 67.1905C574.628 66.1665 574.671 65.0145 574.586 63.7345C574.33 57.5905 572.794 53.1105 569.978 50.2945C567.162 47.3931 563.663 45.8998 559.482 45.8145C558.287 45.7291 556.964 45.7291 555.514 45.8145C554.148 45.8145 552.868 45.8145 551.674 45.8145C550.564 45.8145 549.796 45.8145 549.37 45.8145C549.37 45.7291 549.242 45.2598 548.986 44.4065C548.815 43.4678 548.602 42.5291 548.346 41.5905C548.175 40.6518 548.09 40.1825 548.09 40.1825ZM549.754 40.1825V129.782H530.554V40.1825H549.754ZM530.938 120.438V129.782H520.698V128.502C520.783 128.502 521.039 128.502 521.466 128.502C521.978 128.502 522.276 128.502 522.362 128.502C524.58 128.502 526.458 127.734 527.994 126.198C529.615 124.577 530.468 122.657 530.554 120.438H530.938ZM530.938 49.5265H530.554C530.468 47.3078 529.615 45.4305 527.994 43.8945C526.458 42.2731 524.58 41.4625 522.362 41.4625C522.276 41.4625 521.978 41.4625 521.466 41.4625C521.039 41.4625 520.783 41.4625 520.698 41.4625V40.1825H530.938V49.5265ZM549.37 120.438H549.754C549.754 122.657 550.564 124.577 552.186 126.198C553.807 127.734 555.727 128.502 557.946 128.502C558.116 128.502 558.415 128.502 558.842 128.502C559.268 128.502 559.482 128.502 559.482 128.502V129.782H549.37V120.438ZM643.495 40.1825V129.782H624.295V40.1825H643.495ZM677.287 124.278L680.359 129.782H643.111V124.278H677.287ZM672.551 82.9345V88.3105H643.111V82.9345H672.551ZM678.823 40.1825V45.6865H643.111V40.1825H678.823ZM686.631 103.542L680.743 129.782H655.655L660.263 124.278C664.529 124.278 668.284 123.468 671.527 121.846C674.769 120.14 677.543 117.75 679.847 114.678C682.151 111.521 683.985 107.809 685.351 103.542H686.631ZM672.551 88.0545V100.342H671.271V99.3185C671.271 96.1611 670.247 93.5585 668.199 91.5105C666.151 89.4625 663.548 88.3958 660.391 88.3105V88.0545H672.551ZM672.551 70.9025V83.1905H660.391V82.9345C663.548 82.8491 666.151 81.7825 668.199 79.7345C670.247 77.6011 671.271 74.9558 671.271 71.7985V70.9025H672.551ZM678.823 45.3025V60.2785H677.543V58.7425C677.543 54.8171 676.348 51.6598 673.959 49.2705C671.655 46.8811 668.497 45.6438 664.487 45.5585V45.3025H678.823ZM678.823 37.8785V41.5905L663.207 40.1825C665.084 40.1825 667.047 40.0545 669.095 39.7985C671.228 39.5425 673.191 39.2438 674.983 38.9025C676.775 38.5611 678.055 38.2198 678.823 37.8785ZM624.679 120.438V129.782H614.439V128.502C614.439 128.502 614.695 128.502 615.207 128.502C615.804 128.502 616.103 128.502 616.103 128.502C618.321 128.502 620.199 127.734 621.735 126.198C623.356 124.577 624.209 122.657 624.295 120.438H624.679ZM624.679 49.5265H624.295C624.209 47.3078 623.356 45.4305 621.735 43.8945C620.199 42.2731 618.321 41.4625 616.103 41.4625C616.103 41.4625 615.804 41.4625 615.207 41.4625C614.695 41.4625 614.439 41.4625 614.439 41.4625V40.1825H624.679V49.5265ZM725.394 38.3905C727.1 38.3905 729.191 38.4758 731.666 38.6465C734.226 38.8171 736.828 39.0731 739.474 39.4145C742.204 39.6705 744.551 39.9691 746.514 40.3105C748.562 40.5665 749.97 40.8651 750.738 41.2065L749.202 58.4865H747.922C747.922 54.0491 746.258 50.5078 742.93 47.8625C739.687 45.1318 735.335 43.7665 729.874 43.7665C724.924 43.7665 720.914 44.9611 717.842 47.3505C714.855 49.7398 713.276 52.6411 713.106 56.0545C713.02 58.6145 713.831 60.8331 715.538 62.7105C717.244 64.5878 719.42 66.3371 722.066 67.9585L746.514 83.8305C750.439 86.0491 753.383 88.9505 755.346 92.5345C757.394 96.1185 758.29 100.3 758.034 105.078C757.607 113.441 754.407 119.969 748.434 124.662C742.46 129.27 734.354 131.574 724.114 131.574C720.359 131.574 716.69 131.233 713.106 130.55C709.607 129.953 706.492 129.1 703.762 127.99C701.031 126.796 698.855 125.388 697.234 123.766C696.551 121.889 696.252 119.628 696.338 116.982C696.423 114.337 696.807 111.649 697.49 108.918C698.258 106.188 699.196 103.926 700.306 102.134H701.458C701.116 106.486 701.884 110.54 703.762 114.294C705.724 117.964 708.54 120.908 712.21 123.126C715.964 125.26 720.402 126.284 725.522 126.198C731.154 126.113 735.506 124.705 738.578 121.974C741.65 119.158 743.186 115.788 743.186 111.862C743.186 109.217 742.375 106.828 740.754 104.694C739.218 102.561 736.658 100.513 733.074 98.5505L710.674 83.7025C706.151 81.1425 702.866 77.8571 700.818 73.8465C698.77 69.8358 697.959 65.4838 698.385 60.7905C698.812 56.3531 700.135 52.4705 702.354 49.1425C704.572 45.7291 707.602 43.0838 711.442 41.2065C715.367 39.3291 720.018 38.3905 725.394 38.3905ZM750.866 39.6705L750.61 42.3585H735.506V39.6705H750.866ZM809.25 37.6225L851.106 129.014H828.066L801.442 62.3265L809.25 37.6225ZM781.73 120.438C781.047 122.145 780.919 123.596 781.346 124.79C781.772 125.985 782.498 126.924 783.522 127.606C784.546 128.204 785.57 128.502 786.594 128.502H787.746V129.782H760.353V128.502C760.353 128.502 760.567 128.502 760.993 128.502C761.335 128.502 761.505 128.502 761.505 128.502C763.468 128.502 765.474 127.905 767.522 126.71C769.655 125.43 771.404 123.34 772.77 120.438H781.73ZM809.25 37.6225L809.762 53.2385L778.018 129.398H768.674L801.826 54.3905C802.082 53.8785 802.508 52.9398 803.106 51.5745C803.788 50.1238 804.471 48.5025 805.154 46.7105C805.922 44.9185 806.604 43.2118 807.202 41.5905C807.799 39.8838 808.098 38.5611 808.098 37.6225H809.25ZM822.69 99.3185V104.694H785.058V99.3185H822.69ZM824.61 120.438H847.01C848.46 123.34 850.21 125.43 852.258 126.71C854.306 127.905 856.311 128.502 858.274 128.502C858.274 128.502 858.444 128.502 858.786 128.502C859.127 128.502 859.298 128.502 859.298 128.502V129.782H818.594V128.502H819.746C821.452 128.502 822.946 127.82 824.226 126.454C825.506 125.004 825.634 122.998 824.61 120.438Z" fill="white"/>
</svg>
