<svg width="294" height="248" viewBox="0 0 294 248" fill="none" xmlns="http://www.w3.org/2000/svg">
<path d="M21.758 34.6254L53.6921 122.595C111.444 123.518 142.399 148.552 147.002 153.243C147.002 153.243 118.535 57.2604 21.758 34.6254Z" fill="#00609E"/>
<path d="M9.62381 48.1702L42.6622 136.14C107.486 136.14 141.615 163.336 147.002 168.009V159.749C137.026 151.675 102.864 130.237 45.3118 130.237L14.7652 48.263C13.0715 48.2026 11.3546 48.1702 9.62381 48.1702Z" fill="#F8B31A"/>
<mask id="mask0_47_75" style="mask-type:luminance" maskUnits="userSpaceOnUse" x="0" y="57" width="148" height="126">
<path d="M0 57.1305H147.206V182.565H0V57.1305Z" fill="white"/>
</mask>
<g mask="url(#mask0_47_75)">
<path d="M0 57.2604L34.1335 147.865C105.435 147.865 142.195 178.296 147.002 182.565V174.347C136.585 165.791 99.7695 142.209 37.0011 142.209L5.25273 57.3532C3.52193 57.2929 1.76793 57.2604 0 57.2604Z" fill="#1F396D"/>
</g>
<path d="M272.247 34.6254L240.313 122.595C182.556 123.518 151.605 148.552 147.002 153.243C147.002 153.243 175.465 57.2604 272.247 34.6254Z" fill="#00609E"/>
<path d="M284.529 0.779541L276.966 21.6188C225.863 32.8853 192.913 65.8308 174.245 91.5238C189.887 61.8774 223.079 16.4589 284.529 0.779541Z" fill="#F8B31A"/>
<mask id="mask1_47_75" style="mask-type:luminance" maskUnits="userSpaceOnUse" x="6" y="0" width="115" height="93">
<path d="M6.11578 0H120.154V92.6838H6.11578V0Z" fill="white"/>
</mask>
<g mask="url(#mask1_47_75)">
<path d="M6.181 -0.0231934L13.791 20.9367C66.7452 31.4979 100.698 65.288 119.755 91.5238C103.839 61.3531 69.7428 14.8487 6.181 -0.0231934Z" fill="#F8B31A"/>
</g>
<path d="M284.381 48.1702L251.342 136.14C186.518 136.14 152.39 163.336 147.002 168.009V159.749C156.979 151.675 191.135 130.237 248.688 130.237L279.235 48.263C280.933 48.2026 282.645 48.1702 284.381 48.1702Z" fill="#F8B31A"/>
<mask id="mask2_47_75" style="mask-type:luminance" maskUnits="userSpaceOnUse" x="146" y="57" width="148" height="126">
<path d="M146.965 57.1305H294V182.565H146.965V57.1305Z" fill="white"/>
</mask>
<g mask="url(#mask2_47_75)">
<path d="M294 57.2604L259.871 147.865C188.569 147.865 151.81 178.296 147.002 182.565V174.347C157.42 165.791 194.231 142.209 257.003 142.209L288.747 57.3532C290.483 57.2929 292.232 57.2604 294 57.2604Z" fill="#1F396D"/>
</g>
<path d="M147.002 71.2553C147.002 71.2553 117.421 20.8764 77.4964 9.44287C77.4964 9.44287 135.796 57.859 147.002 147.573C158.208 57.859 216.504 9.44287 216.504 9.44287C176.579 20.8764 147.002 71.2553 147.002 71.2553Z" fill="#00609E"/>
<path d="M165.656 22.4587C165.656 11.0948 157.304 1.87927 147.002 1.87927C136.701 1.87927 128.349 11.0948 128.349 22.4587C128.349 33.8272 136.701 43.0381 147.002 43.0381C157.304 43.0381 165.656 33.8272 165.656 22.4587Z" fill="#00609E"/>
<path d="M64.7342 195.005L80.4302 229.277H71.7902L61.8062 204.269L64.7342 195.005ZM54.4142 226.061C54.1582 226.701 54.1102 227.245 54.2702 227.693C54.4302 228.141 54.7022 228.493 55.0862 228.749C55.4702 228.973 55.8542 229.085 56.2382 229.085H56.6702V229.565H46.3982V229.085C46.3982 229.085 46.4782 229.085 46.6382 229.085C46.7662 229.085 46.8302 229.085 46.8302 229.085C47.5662 229.085 48.3182 228.861 49.0862 228.413C49.8862 227.933 50.5422 227.149 51.0542 226.061H54.4142ZM64.7342 195.005L64.9262 200.861L53.0222 229.421H49.5182L61.9502 201.293C62.0462 201.101 62.2062 200.749 62.4302 200.237C62.6862 199.693 62.9422 199.085 63.1982 198.413C63.4862 197.741 63.7422 197.101 63.9662 196.493C64.1902 195.853 64.3022 195.357 64.3022 195.005H64.7342ZM69.7742 218.141V220.157H55.6622V218.141H69.7742ZM70.4942 226.061H78.8942C79.4382 227.149 80.0942 227.933 80.8622 228.413C81.6302 228.861 82.3822 229.085 83.1182 229.085C83.1182 229.085 83.1822 229.085 83.3102 229.085C83.4382 229.085 83.5022 229.085 83.5022 229.085V229.565H68.2382V229.085H68.6702C69.3102 229.085 69.8702 228.829 70.3502 228.317C70.8302 227.773 70.8782 227.021 70.4942 226.061ZM101.972 208.877L114.548 226.109C115.284 227.069 116.036 227.805 116.804 228.317C117.572 228.797 118.452 229.053 119.444 229.085V229.565H115.508C115.156 229.565 114.564 229.549 113.732 229.517C112.932 229.485 112.02 229.357 110.996 229.133C109.972 228.909 108.932 228.525 107.876 227.981C106.852 227.405 105.956 226.605 105.188 225.581C105.028 225.357 104.708 224.925 104.228 224.285C103.748 223.645 103.188 222.877 102.548 221.981C101.908 221.085 101.236 220.173 100.532 219.245C99.8604 218.285 99.2204 217.389 98.6124 216.557C98.0044 215.725 97.5084 215.053 97.1244 214.541C96.7724 213.997 96.5964 213.725 96.5964 213.725L101.972 208.877ZM114.02 196.301L99.5724 213.437L96.5964 213.725L109.796 196.301H114.02ZM117.38 195.965V196.397H117.188C116.132 196.397 115.14 196.621 114.212 197.069C113.316 197.485 112.548 198.045 111.908 198.749L108.02 198.653C108.404 198.109 108.468 197.597 108.212 197.117C107.956 196.637 107.508 196.397 106.868 196.397H106.388V195.965H117.188H117.38ZM95.0604 195.965V229.565H87.8604V195.965H95.0604ZM88.0044 226.061V229.565H84.1644V229.085C84.1964 229.085 84.2924 229.085 84.4524 229.085C84.6444 229.085 84.7564 229.085 84.7884 229.085C85.6204 229.085 86.3244 228.797 86.9004 228.221C87.5084 227.613 87.8284 226.893 87.8604 226.061H88.0044ZM88.0044 199.469H87.8604C87.8284 198.637 87.5084 197.933 86.9004 197.357C86.3244 196.749 85.6204 196.445 84.7884 196.445C84.7564 196.445 84.6444 196.445 84.4524 196.445C84.2924 196.445 84.1964 196.445 84.1644 196.445V195.965H88.0044V199.469ZM94.9164 226.061H95.0604C95.0924 226.893 95.3964 227.613 95.9724 228.221C96.5804 228.797 97.3004 229.085 98.1324 229.085C98.1644 229.085 98.2604 229.085 98.4204 229.085C98.6124 229.085 98.7244 229.085 98.7564 229.085V229.565H94.9164V226.061ZM94.9164 199.469V195.965H98.7564V196.445C98.7244 196.445 98.6124 196.445 98.4204 196.445C98.2604 196.445 98.1644 196.445 98.1324 196.445C97.3004 196.445 96.5804 196.749 95.9724 197.357C95.3964 197.933 95.0924 198.637 95.0604 199.469H94.9164ZM130.909 195.965H137.101C138.541 195.965 139.949 196.125 141.325 196.445C142.701 196.765 143.917 197.277 144.973 197.981C146.061 198.685 146.925 199.613 147.565 200.765C148.205 201.917 148.525 203.341 148.525 205.037C148.525 206.381 148.237 207.725 147.661 209.069C147.117 210.381 146.269 211.517 145.117 212.477C143.965 213.405 142.477 213.965 140.653 214.157C141.677 214.477 142.605 215.053 143.437 215.885C144.301 216.717 145.005 217.549 145.549 218.381C145.581 218.445 145.757 218.733 146.077 219.245C146.429 219.757 146.845 220.397 147.325 221.165C147.837 221.901 148.365 222.653 148.909 223.421C149.453 224.189 149.949 224.861 150.397 225.437C151.101 226.301 151.741 227.005 152.317 227.549C152.893 228.061 153.501 228.445 154.141 228.701C154.781 228.925 155.517 229.053 156.349 229.085V229.565H151.645C149.917 229.565 148.349 229.421 146.941 229.133C145.533 228.813 144.285 228.285 143.197 227.549C142.109 226.813 141.165 225.821 140.365 224.573C140.109 224.189 139.821 223.709 139.501 223.133C139.213 222.525 138.909 221.885 138.589 221.213C138.269 220.541 137.949 219.901 137.629 219.293C137.341 218.653 137.085 218.077 136.861 217.565C136.637 217.053 136.477 216.653 136.381 216.365C135.965 215.341 135.469 214.573 134.893 214.061C134.349 213.549 133.757 213.245 133.117 213.149V212.669C133.213 212.669 133.405 212.669 133.693 212.669C133.981 212.669 134.285 212.669 134.605 212.669C135.469 212.669 136.301 212.493 137.101 212.141C137.933 211.789 138.669 211.213 139.309 210.413C139.949 209.613 140.397 208.509 140.653 207.101C140.717 206.813 140.765 206.477 140.797 206.093C140.861 205.709 140.877 205.277 140.845 204.797C140.749 202.493 140.173 200.813 139.117 199.757C138.061 198.669 136.749 198.109 135.181 198.077C134.733 198.045 134.237 198.045 133.693 198.077C133.181 198.077 132.701 198.077 132.253 198.077C131.837 198.077 131.549 198.077 131.389 198.077C131.389 198.045 131.341 197.869 131.245 197.549C131.181 197.197 131.101 196.845 131.005 196.493C130.941 196.141 130.909 195.965 130.909 195.965ZM131.533 195.965V229.565H124.333V195.965H131.533ZM124.477 226.061V229.565H120.637V229.085C120.669 229.085 120.765 229.085 120.925 229.085C121.117 229.085 121.229 229.085 121.261 229.085C122.093 229.085 122.797 228.797 123.373 228.221C123.981 227.613 124.301 226.893 124.333 226.061H124.477ZM124.477 199.469H124.333C124.301 198.637 123.981 197.933 123.373 197.357C122.797 196.749 122.093 196.445 121.261 196.445C121.229 196.445 121.117 196.445 120.925 196.445C120.765 196.445 120.669 196.445 120.637 196.445V195.965H124.477V199.469ZM131.389 226.061H131.533C131.533 226.893 131.837 227.613 132.445 228.221C133.053 228.797 133.773 229.085 134.605 229.085C134.669 229.085 134.781 229.085 134.941 229.085C135.101 229.085 135.181 229.085 135.181 229.085V229.565H131.389V226.061ZM166.685 195.965V229.565H159.485V195.965H166.685ZM179.357 227.501L180.509 229.565H166.541V227.501H179.357ZM177.581 211.997V214.013H166.541V211.997H177.581ZM179.933 195.965V198.029H166.541V195.965H179.933ZM182.861 219.725L180.653 229.565H171.245L172.973 227.501C174.573 227.501 175.981 227.197 177.197 226.589C178.413 225.949 179.453 225.053 180.317 223.901C181.181 222.717 181.869 221.325 182.381 219.725H182.861ZM177.581 213.917V218.525H177.101V218.141C177.101 216.957 176.717 215.981 175.949 215.213C175.181 214.445 174.205 214.045 173.021 214.013V213.917H177.581ZM177.581 207.485V212.093H173.021V211.997C174.205 211.965 175.181 211.565 175.949 210.797C176.717 209.997 177.101 209.005 177.101 207.821V207.485H177.581ZM179.933 197.885V203.501H179.453V202.925C179.453 201.453 179.005 200.269 178.109 199.373C177.245 198.477 176.061 198.013 174.557 197.981V197.885H179.933ZM179.933 195.101V196.493L174.077 195.965C174.781 195.965 175.517 195.917 176.285 195.821C177.085 195.725 177.821 195.613 178.493 195.485C179.165 195.357 179.645 195.229 179.933 195.101ZM159.629 226.061V229.565H155.789V229.085C155.789 229.085 155.885 229.085 156.077 229.085C156.301 229.085 156.413 229.085 156.413 229.085C157.245 229.085 157.949 228.797 158.525 228.221C159.133 227.613 159.453 226.893 159.485 226.061H159.629ZM159.629 199.469H159.485C159.453 198.637 159.133 197.933 158.525 197.357C157.949 196.749 157.245 196.445 156.413 196.445C156.413 196.445 156.301 196.445 156.077 196.445C155.885 196.445 155.789 196.445 155.789 196.445V195.965H159.629V199.469ZM197.398 195.293C198.038 195.293 198.822 195.325 199.75 195.389C200.71 195.453 201.686 195.549 202.678 195.677C203.702 195.773 204.582 195.885 205.318 196.013C206.086 196.109 206.614 196.221 206.902 196.349L206.326 202.829H205.846C205.846 201.165 205.222 199.837 203.974 198.845C202.758 197.821 201.126 197.309 199.078 197.309C197.222 197.309 195.718 197.757 194.566 198.653C193.446 199.549 192.854 200.637 192.79 201.917C192.758 202.877 193.062 203.709 193.702 204.413C194.342 205.117 195.158 205.773 196.15 206.381L205.318 212.333C206.79 213.165 207.894 214.253 208.63 215.597C209.398 216.941 209.734 218.509 209.638 220.301C209.478 223.437 208.278 225.885 206.038 227.645C203.798 229.373 200.758 230.237 196.918 230.237C195.51 230.237 194.134 230.109 192.79 229.853C191.478 229.629 190.31 229.309 189.286 228.893C188.262 228.445 187.446 227.917 186.838 227.309C186.582 226.605 186.47 225.757 186.502 224.765C186.534 223.773 186.678 222.765 186.934 221.741C187.222 220.717 187.574 219.869 187.99 219.197H188.422C188.294 220.829 188.582 222.349 189.286 223.757C190.022 225.133 191.078 226.237 192.454 227.069C193.862 227.869 195.526 228.253 197.446 228.221C199.558 228.189 201.19 227.661 202.342 226.637C203.494 225.581 204.07 224.317 204.07 222.845C204.07 221.853 203.766 220.957 203.158 220.157C202.582 219.357 201.622 218.589 200.278 217.853L191.878 212.285C190.182 211.325 188.95 210.093 188.182 208.589C187.414 207.085 187.11 205.453 187.27 203.693C187.43 202.029 187.926 200.573 188.758 199.325C189.59 198.045 190.726 197.053 192.166 196.349C193.638 195.645 195.382 195.293 197.398 195.293ZM206.95 195.773L206.854 196.781H201.19V195.773H206.95ZM228.844 195.005L244.54 229.277H235.9L225.916 204.269L228.844 195.005ZM218.524 226.061C218.268 226.701 218.22 227.245 218.38 227.693C218.54 228.141 218.812 228.493 219.196 228.749C219.58 228.973 219.964 229.085 220.348 229.085H220.78V229.565H210.508V229.085C210.508 229.085 210.588 229.085 210.748 229.085C210.876 229.085 210.94 229.085 210.94 229.085C211.676 229.085 212.428 228.861 213.196 228.413C213.996 227.933 214.652 227.149 215.164 226.061H218.524ZM228.844 195.005L229.036 200.861L217.132 229.421H213.628L226.06 201.293C226.156 201.101 226.316 200.749 226.54 200.237C226.796 199.693 227.052 199.085 227.308 198.413C227.596 197.741 227.852 197.101 228.076 196.493C228.3 195.853 228.412 195.357 228.412 195.005H228.844ZM233.884 218.141V220.157H219.772V218.141H233.884ZM234.604 226.061H243.004C243.548 227.149 244.204 227.933 244.972 228.413C245.74 228.861 246.492 229.085 247.228 229.085C247.228 229.085 247.292 229.085 247.42 229.085C247.548 229.085 247.612 229.085 247.612 229.085V229.565H232.348V229.085H232.78C233.42 229.085 233.98 228.829 234.46 228.317C234.94 227.773 234.988 227.021 234.604 226.061Z" fill="black"/>
</svg>
